HIERARCHY
ROOT Hips
{
	OFFSET 0.000000 0.000000 0.000000
	CHANNELS 6 Xposition Yposition Zposition Zrotation Yrotation Xrotation 
	JOINT LowerBack
	{
		OFFSET 0.000000 0.000000 0.000000
		CHANNELS 3 Zrotation Yrotation Xrotation
		JOINT Spine
		{
			OFFSET 0.028270 2.035590 -0.193380
			CHANNELS 3 Zrotation Yrotation Xrotation
			JOINT Spine1
			{
				OFFSET 0.056720 2.048850 -0.042750
				CHANNELS 3 Zrotation Yrotation Xrotation
				JOINT Neck
				{
					OFFSET 0.000000 0.000000 0.000000
					CHANNELS 3 Zrotation Yrotation Xrotation
					JOINT Neck1
					{
						OFFSET -0.054170 1.746240 0.172020
						CHANNELS 3 Zrotation Yrotation Xrotation
						JOINT Head
						{
							OFFSET 0.104070 1.761360 -0.123970
							CHANNELS 3 Zrotation Yrotation Xrotation
							End Site
							{
								OFFSET 0.000000 0.000000 0.000000
							}
						}
					}
				}
				JOINT LeftShoulder
				{
					OFFSET 0.000000 0.000000 0.000000
					CHANNELS 3 Zrotation Yrotation Xrotation
					JOINT LeftArm
					{
						OFFSET 3.362410 1.200890 -0.311210
						CHANNELS 3 Zrotation Yrotation Xrotation
						JOINT LeftForeArm
						{
							OFFSET 4.983000 -0.000000 -0.000000
							CHANNELS 3 Zrotation Yrotation Xrotation
							JOINT LeftHand
							{
								OFFSET 3.483560 -0.000000 -0.000000
								CHANNELS 3 Zrotation Yrotation Xrotation
								JOINT LeftFingerBase
								{
									OFFSET 0.000000 0.000000 0.000000
									CHANNELS 3 Zrotation Yrotation Xrotation
									JOINT LeftHandIndex1
									{
										OFFSET 0.715260 -0.000000 -0.000000
										CHANNELS 3 Zrotation Yrotation Xrotation
										End Site
										{
											OFFSET 0.000000 0.000000 0.000000
										}
									}
								}
								JOINT LThumb
								{
									OFFSET 0.000000 0.000000 0.000000
									CHANNELS 3 Zrotation Yrotation Xrotation
									End Site
									{
										OFFSET 0.000000 0.000000 0.000000
									}
								}
							}
						}
					}
				}
				JOINT RightShoulder
				{
					OFFSET 0.000000 0.000000 0.000000
					CHANNELS 3 Zrotation Yrotation Xrotation
					JOINT RightArm
					{
						OFFSET -3.136600 1.374050 -0.404650
						CHANNELS 3 Zrotation Yrotation Xrotation
						JOINT RightForeArm
						{
							OFFSET -5.241900 -0.000000 -0.000000
							CHANNELS 3 Zrotation Yrotation Xrotation
							JOINT RightHand
							{
								OFFSET -3.444170 -0.000000 -0.000000
								CHANNELS 3 Zrotation Yrotation Xrotation
								JOINT RightFingerBase
								{
									OFFSET 0.000000 0.000000 0.000000
									CHANNELS 3 Zrotation Yrotation Xrotation
									JOINT RightHandIndex1
									{
										OFFSET -0.622530 -0.000000 -0.000000
										CHANNELS 3 Zrotation Yrotation Xrotation
										End Site
										{
											OFFSET 0.000000 0.000000 0.000000
										}
									}
								}
								JOINT RThumb
								{
									OFFSET 0.000000 0.000000 0.000000
									CHANNELS 3 Zrotation Yrotation Xrotation
									End Site
									{
										OFFSET 0.000000 0.000000 0.000000
									}
								}
							}
						}
					}
				}
			}
		}
	}
}
}
MOTION
Frames: 9
Frame Time: 0.008333
-3.730630 16.854444 0.661535 -165.978631 79.113866 -139.777300 7.500139 -0.825087 3.753191 0.307855 -1.128703 -2.083276 -7.878049 -1.236238 0.672452 5.932828 4.665698 4.042040 -5.631882 -0.442328 2.677006 0.000000 0.000000 0.000000 -7.241427 -5.485546 1.945111 -62.583116 -24.202183 7.137613 -2.835195 -32.978790 -0.020700 8.731390 -2.968037 -0.243214 -0.114250 0.185853 0.000000 0.000000 0.000000 0.000000 0.000000 0.000000 0.000000 20.276924 0.732041 0.447584 63.665825 9.869838 -10.238765 3.424004 16.554653 0.011434 1.250515 7.341492 0.076865 0.071265 -0.083214 -0.000000 0.000000 0.000000 0.000000 0.000000 0.000000 0.000000 
-3.618885 16.876250 0.672257 -167.479607 78.362945 -141.251226 7.497099 -0.930154 3.944298 0.321971 -1.218810 -2.067453 -7.812598 -1.335101 0.609037 6.243180 4.990857 4.146408 -5.578256 -0.439896 2.711040 0.000000 0.000000 0.000000 -6.767938 -5.813087 1.939433 -63.457162 -23.629127 6.597916 -2.782885 -31.296919 -0.021802 9.112289 -2.862838 -0.244794 -0.108139 0.180828 0.000000 0.000000 0.000000 0.000000 0.000000 0.000000 0.000000 20.383270 0.940816 0.476054 63.729141 10.592140 -10.880062 3.428217 15.447715 0.011107 1.202986 7.130717 0.071555 0.071694 -0.081594 -0.000000 0.000000 0.000000 0.000000 0.000000 0.000000 0.000000 
-3.508512 16.897556 0.684431 -169.086543 77.557510 -142.841466 7.452356 -1.046638 4.133016 0.328589 -1.319397 -2.047751 -7.742154 -1.443118 0.558835 6.573560 5.268148 4.255538 -5.515820 -0.437140 2.746831 0.000000 0.000000 0.000000 -6.291711 -6.175094 1.938032 -64.249275 -23.079351 6.237281 -2.740138 -29.631241 -0.022482 9.371067 -2.708987 -0.238463 -0.102772 0.175844 0.000000 0.000000 0.000000 0.000000 0.000000 0.000000 0.000000 20.469685 1.104274 0.497942 63.822541 11.355316 -11.487293 3.426168 14.371726 0.010740 1.122364 6.914520 0.064446 0.072227 -0.079999 -0.000000 0.000000 0.000000 0.000000 0.000000 0.000000 0.000000 
-3.399345 16.918000 0.696931 -170.678608 76.703833 -144.422420 7.389096 -1.166316 4.312477 0.332181 -1.423905 -2.027147 -7.667093 -1.554065 0.516837 6.912646 5.522992 4.377609 -5.444553 -0.434087 2.786404 0.000000 0.000000 0.000000 -5.845373 -6.569071 1.943127 -64.946826 -22.542220 6.081533 -2.711076 -28.015612 -0.022668 9.467675 -2.492686 -0.222322 -0.098201 0.170898 0.000000 0.000000 0.000000 0.000000 0.000000 0.000000 0.000000 20.522858 1.253237 0.513549 63.941699 12.105710 -12.082700 3.418012 13.383930 0.010334 1.030452 6.686658 0.056838 0.072669 -0.078471 -0.000000 0.000000 0.000000 0.000000 0.000000 0.000000 0.000000 
-3.291371 16.937392 0.708714 -172.158037 75.810668 -145.892780 7.327276 -1.281681 4.481147 0.336156 -1.525859 -2.003678 -7.589605 -1.661186 0.491340 7.248362 5.719882 4.499218 -5.369065 -0.430889 2.825601 0.000000 0.000000 0.000000 -5.449724 -6.971151 1.949566 -65.552148 -22.043877 6.151307 -2.699328 -26.460209 -0.022290 9.370506 -2.217181 -0.196767 -0.094433 0.165946 0.000000 0.000000 0.000000 0.000000 0.000000 0.000000 0.000000 20.550745 1.352608 0.522101 64.062608 12.884944 -12.559661 3.407259 12.477699 0.009930 0.913157 6.473321 0.048328 0.073231 -0.077017 -0.000000 0.000000 0.000000 0.000000 0.000000 0.000000 0.000000 
-3.184713 16.955777 0.718947 -173.460324 74.890139 -147.186603 7.285456 -1.386041 4.636857 0.344033 -1.619373 -1.979639 -7.510329 -1.759026 0.476180 7.573217 5.883231 4.628512 -5.290004 -0.427602 2.866467 0.000000 0.000000 0.000000 -5.123215 -7.384296 1.958743 -66.063431 -21.564025 6.440278 -2.705328 -25.003253 -0.021344 9.057129 -1.873637 -0.162301 -0.091293 0.160923 0.000000 0.000000 0.000000 0.000000 0.000000 0.000000 0.000000 20.546827 1.429456 0.524713 64.179687 13.653341 -12.934881 3.395018 11.693672 0.009538 0.795290 6.272177 0.040221 0.073724 -0.075672 -0.000000 0.000000 0.000000 0.000000 0.000000 0.000000 0.000000 
-3.079487 16.973335 0.727064 -174.551456 73.955731 -148.269071 7.275826 -1.474422 4.780461 0.357920 -1.699733 -1.954919 -7.430628 -1.842997 0.471292 7.881648 6.011290 4.763790 -5.209883 -0.424329 2.908262 0.000000 0.000000 0.000000 -4.874276 -7.800736 1.969085 -66.485694 -21.099988 6.932418 -2.728621 -23.669714 -0.019855 8.520023 -1.466132 -0.121623 -0.088598 0.155757 0.000000 0.000000 0.000000 0.000000 0.000000 0.000000 0.000000 20.515763 1.481967 0.521886 64.280347 14.416127 -13.174971 3.383555 11.037457 0.009184 0.684737 6.095702 0.033115 0.074137 -0.074456 -0.000000 0.000000 0.000000 0.000000 0.000000 0.000000 0.000000 
-2.975916 16.990343 0.732782 -175.426228 73.021758 -149.135847 7.303315 -1.544082 4.915911 0.378511 -1.763921 -1.927853 -7.352179 -1.910030 0.479873 8.171121 6.101671 4.899179 -5.131107 -0.421117 2.949041 0.000000 0.000000 0.000000 -4.707587 -8.191455 1.979084 -66.826097 -20.676888 7.618900 -2.769304 -22.461152 -0.017887 7.767951 -1.009285 -0.079135 -0.086270 0.150437 0.000000 0.000000 0.000000 0.000000 0.000000 0.000000 0.000000 20.465609 1.507994 0.512620 64.353678 15.186584 -13.250483 3.374730 10.508551 0.008892 0.588384 5.955699 0.027310 0.074457 -0.073366 -0.000000 0.000000 0.000000 0.000000 0.000000 0.000000 0.000000 
-2.874170 17.007102 0.736116 -176.098902 72.101546 -149.803216 7.367537 -1.593304 5.045985 0.405710 -1.809805 -1.900001 -7.274866 -1.958382 0.494010 8.442167 6.173032 5.041860 -5.054051 -0.418031 2.990780 0.000000 0.000000 0.000000 -4.614921 -8.576713 1.989715 -67.091130 -20.252870 8.440042 -2.822503 -21.421749 -0.015554 6.823502 -0.507166 -0.038839 -0.084013 0.144893 0.000000 0.000000 0.000000 0.000000 0.000000 0.000000 0.000000 20.397681 1.525794 0.499720 64.397383 15.946169 -13.186457 3.368925 10.115233 0.008672 0.523492 5.852613 0.023507 0.074547 -0.072457 -0.000000 0.000000 0.000000 0.000000 0.000000 0.000000 0.000000 
